<svg width="240" height="240" viewBox="0 0 240 240" fill="none" xmlns="http://www.w3.org/2000/svg" role="img" aria-labelledby="title desc">
  <title id="title">Paskalito celebrando</title>
  <desc id="desc">Mascota Paskalito en estado de celebración.</desc>
  <circle cx="120" cy="120" r="88" fill="#FFF0E0"/>
  <circle cx="120" cy="125" r="66" fill="#FFE0C4"/>
  <path d="M80 110Q96 100 108 110" stroke="#3D2E4F" stroke-width="6" stroke-linecap="round"/>
  <path d="M132 110Q148 100 160 110" stroke="#3D2E4F" stroke-width="6" stroke-linecap="round"/>
  <ellipse cx="120" cy="144" rx="14" ry="12" fill="#3D2E4F"/>
  <circle cx="76" cy="136" r="9" fill="#FF8FB1" opacity=".55"/>
  <circle cx="164" cy="136" r="9" fill="#FF8FB1" opacity=".55"/>
  <path d="M47 55L58 71L39 76L47 55Z" fill="#FFC94A"/>
  <path d="M187 51L201 67L181 75L187 51Z" fill="#9BE7B0"/>
  <circle cx="74" cy="42" r="7" fill="#4867F5"/>
  <circle cx="166" cy="38" r="6" fill="#FF8FB1"/>
  <rect x="85" y="33" width="70" height="36" rx="12" fill="#4867F5"/>
  <path d="M104 56L116 42V52H136L123 67V56H104Z" fill="#FFC94A"/>
</svg>
