<svg width="96" height="96" viewBox="0 0 96 96" fill="none" xmlns="http://www.w3.org/2000/svg" role="img" aria-labelledby="title desc">
  <title id="title">Paskalito mark</title>
  <desc id="desc">Isotipo editable de Paskalito.</desc>
  <rect width="96" height="96" rx="24" fill="#4867F5"/>
  <circle cx="31" cy="31" r="14" fill="#FFC94A"/>
  <path d="M31 18C31 18 35 8 45 7C41 14 41 19 41 19" stroke="#2445D8" stroke-width="5" stroke-linecap="round"/>
  <path d="M32 72V31H55C65 31 72 38 72 48C72 58 65 65 55 65H44V72H32Z" fill="white"/>
  <path d="M44 53H54C58 53 60 51 60 48C60 44 58 42 54 42H44V53Z" fill="#4867F5"/>
  <circle cx="67" cy="24" r="5" fill="#9BE7B0"/>
  <circle cx="75" cy="32" r="3" fill="#FFFFFF"/>
</svg>
