<svg width="320" height="96" viewBox="0 0 320 96" fill="none" xmlns="http://www.w3.org/2000/svg" role="img" aria-labelledby="title desc">
  <title id="title">Paskalito</title>
  <desc id="desc">Logo horizontal editable de Paskalito.</desc>
  <rect x="8" y="8" width="80" height="80" rx="22" fill="#4867F5"/>
  <circle cx="36" cy="35" r="13" fill="#FFC94A"/>
  <path d="M36 22C36 22 40 12 50 11C46 18 46 23 46 23" stroke="#2445D8" stroke-width="5" stroke-linecap="round"/>
  <path d="M37 72V35H57C66 35 72 41 72 49C72 58 66 64 57 64H48V72H37Z" fill="white"/>
  <path d="M48 53H56C59 53 61 51 61 49C61 46 59 44 56 44H48V53Z" fill="#4867F5"/>
  <text x="108" y="56" fill="#151515" font-family="Fredoka, Nunito, system-ui, sans-serif" font-size="34" font-weight="800">Paskalito</text>
  <text x="110" y="76" fill="#6B7280" font-family="Nunito, system-ui, sans-serif" font-size="14" font-weight="700">Aprender jugando</text>
</svg>
