<svg xmlns="http://www.w3.org/2000/svg" viewBox="0 0 512 512" width="512" height="512" role="img" aria-labelledby="title desc">
  <title id="title">Paskalito app icon</title>
  <desc id="desc">Icono de aplicación de Paskalito.</desc>
  <rect width="512" height="512" rx="112" fill="#4867F5"/>
  <circle cx="166" cy="166" r="72" fill="#FFC94A"/>
  <path d="M166 96C166 96 188 43 240 38C219 75 219 101 219 101" stroke="#2445D8" stroke-width="26" stroke-linecap="round"/>
  <path d="M170 384V166H293C346 166 384 203 384 256C384 309 346 346 293 346H234V384H170Z" fill="white"/>
  <path d="M234 282H288C309 282 320 272 320 256C320 235 309 224 288 224H234V282Z" fill="#4867F5"/>
  <circle cx="358" cy="128" r="27" fill="#9BE7B0"/>
  <circle cx="400" cy="170" r="16" fill="white"/>
</svg>
